<?xml version="1.0" encoding="UTF-8"?>
<!DOCTYPE svg PUBLIC "-//W3C//DTD SVG 1.1//EN" "http://www.w3.org/Graphics/SVG/1.1/DTD/svg11.dtd">
<!-- Creator: CorelDRAW X7 -->
<svg xmlns="http://www.w3.org/2000/svg" xml:space="preserve" width="69.4246mm" height="69.4266mm" version="1.1" style="shape-rendering:geometricPrecision; text-rendering:geometricPrecision; image-rendering:optimizeQuality; fill-rule:evenodd; clip-rule:evenodd"
viewBox="0 0 6942 6943"
 xmlns:xlink="http://www.w3.org/1999/xlink">
 <defs>
  <style type="text/css">
   <![CDATA[
    .fil0 {fill:none}
    .fil1 {fill:#FEFEFE}
   ]]>
  </style>
    <clipPath id="id0">
     <path d="M179 179l6584 0 0 6584 -6584 0 0 -6584z"/>
    </clipPath>
 </defs>
 <g id="Camada_x0020_1">
  <metadata id="CorelCorpID_0Corel-Layer"/>
  <rect class="fil0" width="6943" height="6943"/>
  <g id="_201453422880">
   <g style="clip-path:url(#id0)">
    <image x="179" y="179" width="6584" height="6584" xlink:href="SG-logo-white-shadow_Images\SG-logo-white-shadow_ImgID1.png"/>
   </g>
  </g>
  <g id="_201453421408">
   <path class="fil1" d="M423 1947c0,781 587,1424 1343,1514 3,-499 220,-947 564,-1257l-383 0c-141,0 -256,-115 -256,-257 0,-141 115,-256 256,-256l983 -908c-265,-225 -608,-360 -983,-360 -841,0 -1524,683 -1524,1524z"/>
   <path class="fil1" d="M1947 4741l-1077 -823c-276,275 -447,656 -447,1077 0,842 683,1524 1524,1524 781,0 1424,-586 1514,-1342 -501,-3 -950,-222 -1260,-567l0 385c0,141 -113,254 -254,254 -140,0 -254,-113 -254,-254 0,-140 114,-254 254,-254z"/>
   <path class="fil1" d="M3482 5177c90,756 733,1342 1513,1342 842,0 1524,-682 1524,-1524l0 -1524 -68 0 -1201 0 -1 1524c0,141 -113,254 -254,254 -140,0 -254,-113 -254,-254l0 -385c-310,345 -759,564 -1259,567z"/>
   <path class="fil1" d="M5252 1948l0 256 1246 0c14,-84 21,-169 21,-257 0,-841 -682,-1524 -1524,-1524 -780,0 -1423,587 -1513,1343 499,3 947,220 1257,565l0 -383c0,-142 115,-257 256,-257 142,0 257,115 257,257z"/>
   <path class="fil1" d="M4995 3471c0,-841 -682,-1524 -1524,-1524 -841,0 -1524,683 -1524,1524 0,312 94,602 254,843 273,411 740,681 1270,681 842,0 1524,-682 1524,-1524zm-1524 -625c346,0 626,280 626,625 0,346 -280,626 -626,626 -345,0 -625,-280 -625,-626 0,-345 280,-625 625,-625z"/>
  </g>
 </g>
</svg>
